<svg xmlns="http://www.w3.org/2000/svg" width="1158" height="686" viewBox="0 0 1158 686" font-family="ui-sans-serif, system-ui, sans-serif">
<defs><marker id="arrow" viewBox="0 0 10 10" refX="9" refY="5" markerWidth="7" markerHeight="7" orient="auto-start-reverse"><path d="M 0 0 L 10 5 L 0 10 z" fill="#1e1e1e"/></marker></defs>
<rect width="100%" height="100%" fill="#ffffff"/>
<text x="40" y="28" font-size="20" font-weight="bold" fill="#1e1e1e">Recommender Platform</text>
<rect x="79" y="216" width="284" height="232" rx="4" fill="none" stroke="#868e96" stroke-width="1.5" stroke-dasharray="8 5"/>
<text x="93" y="242" font-size="15" font-weight="bold" fill="#868e96">Clients</text>
<rect x="463" y="196" width="655" height="283.6666666666667" rx="4" fill="none" stroke="#868e96" stroke-width="1.5" stroke-dasharray="8 5"/>
<text x="477" y="222" font-size="15" font-weight="bold" fill="#868e96">Recommender Server</text>
<rect x="52" y="498" width="311" height="148" rx="4" fill="none" stroke="#868e96" stroke-width="1.5" stroke-dasharray="8 5"/>
<text x="66" y="524" font-size="15" font-weight="bold" fill="#868e96">Generator Server</text>
<rect x="153" y="102" width="210" height="64" rx="10" fill="#e9ecef" stroke="#495057" stroke-width="2"/>
<text x="258" y="139" font-size="14" font-weight="600" text-anchor="middle" fill="#1e1e1e">3rd Party Metadata</text>
<rect x="107" y="272" width="228" height="64" rx="10" fill="#ffc9c9" stroke="#e03131" stroke-width="2"/>
<text x="221" y="309" font-size="14" font-weight="600" text-anchor="middle" fill="#1e1e1e">Client Application 1</text>
<rect x="107" y="356" width="228" height="64" rx="10" fill="#ffc9c9" stroke="#e03131" stroke-width="2"/>
<text x="221" y="393" font-size="14" font-weight="600" text-anchor="middle" fill="#1e1e1e">Client Application 2</text>
<rect x="491" y="276.6666666666667" width="183" height="82" rx="10" fill="#ffec99" stroke="#f08c00" stroke-width="2"/>
<text x="582.5" y="314.6666666666667" font-size="14" font-weight="600" text-anchor="middle" fill="#1e1e1e">Web Service API</text>
<text x="582.5" y="332.6666666666667" font-size="11" text-anchor="middle" fill="#495057">REST</text>
<rect x="694" y="263" width="210" height="82" rx="10" fill="#b2f2bb" stroke="#2f9e44" stroke-width="2"/>
<text x="799" y="301" font-size="14" font-weight="600" text-anchor="middle" fill="#1e1e1e">Online Recommender</text>
<text x="799" y="319" font-size="11" text-anchor="middle" fill="#495057">Spring Boot</text>
<rect x="712" y="365" width="174" height="64" rx="10" fill="#b2f2bb" stroke="#2f9e44" stroke-width="2"/>
<text x="799" y="402" font-size="14" font-weight="600" text-anchor="middle" fill="#1e1e1e">Action Service</text>
<rect x="934" y="369.6666666666667" width="156" height="82" rx="10" fill="#a5d8ff" stroke="#1971c2" stroke-width="2"/>
<text x="1012" y="407.6666666666667" font-size="14" font-weight="600" text-anchor="middle" fill="#1e1e1e">DB (Actions)</text>
<text x="1012" y="425.6666666666667" font-size="11" text-anchor="middle" fill="#495057">PostgreSQL</text>
<rect x="934" y="263" width="150" height="82" rx="10" fill="#a5d8ff" stroke="#1971c2" stroke-width="2"/>
<text x="1009" y="301" font-size="14" font-weight="600" text-anchor="middle" fill="#1e1e1e">DB (Rules)</text>
<text x="1009" y="319" font-size="11" text-anchor="middle" fill="#495057">PostgreSQL</text>
<rect x="80" y="554" width="255" height="64" rx="10" fill="#b2f2bb" stroke="#2f9e44" stroke-width="2"/>
<text x="207.5" y="591" font-size="14" font-weight="600" text-anchor="middle" fill="#1e1e1e">Action-Based Generators</text>
<line x1="335" y1="308.3098201936376" x2="491" y2="314.20746887966806" stroke="#1e1e1e" stroke-width="1.8" marker-end="url(#arrow)" marker-start="url(#arrow)"/>
<rect x="395.8" y="301.2586445366528" width="34.4" height="16" rx="4" fill="#ffffff" opacity="0.9"/>
<text x="413" y="314.2586445366528" font-size="11" text-anchor="middle" fill="#495057">REST</text>
<line x1="335" y1="365.82019363762106" x2="491" y2="335.4688796680498" stroke="#1e1e1e" stroke-width="1.8" marker-end="url(#arrow)" marker-start="url(#arrow)"/>
<rect x="395.8" y="340.6445366528354" width="34.4" height="16" rx="4" fill="#ffffff" opacity="0.9"/>
<text x="413" y="353.6445366528354" font-size="11" text-anchor="middle" fill="#495057">REST</text>
<line x1="674" y1="311.8906851424173" x2="694" y2="310.6281755196305" stroke="#1e1e1e" stroke-width="1.8" marker-end="url(#arrow)"/>
<line x1="674" y1="351.19553502694384" x2="712" y2="365.1200923787529" stroke="#1e1e1e" stroke-width="1.8" marker-end="url(#arrow)"/>
<line x1="904" y1="304" x2="934" y2="304" stroke="#1e1e1e" stroke-width="1.8" marker-end="url(#arrow)"/>
<rect x="898.5" y="294" width="41" height="16" rx="4" fill="#ffffff" opacity="0.9"/>
<text x="919" y="307" font-size="11" text-anchor="middle" fill="#495057">reads</text>
<line x1="886" y1="402.5821596244132" x2="934" y2="405.6619718309859" stroke="#1e1e1e" stroke-width="1.8" marker-end="url(#arrow)"/>
<rect x="866.4" y="394.1220657276996" width="87.19999999999999" height="16" rx="4" fill="#ffffff" opacity="0.9"/>
<text x="910" y="407.1220657276996" font-size="11" text-anchor="middle" fill="#495057">reads/writes</text>
<line x1="335" y1="558.2125543816035" x2="934" y2="427.6660451626269" stroke="#1e1e1e" stroke-width="1.8" marker-end="url(#arrow)"/>
<rect x="614" y="482.9392997721152" width="41" height="16" rx="4" fill="#ffffff" opacity="0.9"/>
<text x="634.5" y="495.9392997721152" font-size="11" text-anchor="middle" fill="#495057">reads</text>
<line x1="298.4503546099291" y1="554" x2="934" y2="330.38802245789145" stroke="#1e1e1e" stroke-width="1.8" marker-end="url(#arrow)"/>
<rect x="592.4251773049646" y="432.1940112289457" width="47.599999999999994" height="16" rx="4" fill="#ffffff" opacity="0.9"/>
<text x="616.2251773049645" y="445.1940112289457" font-size="11" text-anchor="middle" fill="#495057">writes</text>
<line x1="363" y1="157.7683089214381" x2="934" y2="287.0226364846871" stroke="#1e1e1e" stroke-width="1.8" marker-end="url(#arrow)"/>
<rect x="618.1" y="212.39547270306258" width="60.8" height="16" rx="4" fill="#ffffff" opacity="0.9"/>
<text x="648.5" y="225.39547270306258" font-size="11" text-anchor="middle" fill="#495057">enriches</text>
</svg>